<svg width="20" height="20" viewBox="0 0 20 20" fill="none" xmlns="http://www.w3.org/2000/svg">
<path d="M9.25 20C9.05 20 8.875 19.925 8.725 19.775C8.575 19.625 8.5 19.45 8.5 19.25C8.5 19.05 8.575 18.875 8.725 18.725C8.875 18.575 9.05 18.5 9.25 18.5V18.5V16.95C8.55 16.8667 7.89167 16.7 7.275 16.45C6.65833 16.2 6.1 15.8667 5.6 15.45L4.525 16.55V16.55C4.675 16.7 4.75 16.875 4.75 17.075C4.75 17.275 4.675 17.45 4.525 17.6C4.375 17.75 4.2 17.825 4 17.825C3.8 17.825 3.625 17.75 3.475 17.6L2.4 16.55C2.25 16.4 2.175 16.2208 2.175 16.0125C2.175 15.8042 2.25 15.625 2.4 15.475C2.55 15.325 2.725 15.2542 2.925 15.2625C3.125 15.2708 3.3 15.3417 3.45 15.475V15.475L4.55 14.375C4.13333 13.8583 3.8 13.3 3.55 12.7C3.3 12.1 3.13333 11.45 3.05 10.75H1.5V10.75C1.5 10.95 1.425 11.125 1.275 11.275C1.125 11.425 0.95 11.5 0.75 11.5C0.55 11.5 0.375 11.425 0.225 11.275C0.075 11.125 0 10.95 0 10.75V9.25C0 9.05 0.075 8.875 0.225 8.725C0.375 8.575 0.55 8.5 0.75 8.5C0.95 8.5 1.125 8.575 1.275 8.725C1.425 8.875 1.5 9.05 1.5 9.25V9.25H3.05C3.13333 8.55 3.30417 7.9 3.5625 7.3C3.82083 6.7 4.15 6.14167 4.55 5.625L3.45 4.525V4.525C3.3 4.65833 3.125 4.72917 2.925 4.7375C2.725 4.74583 2.55 4.675 2.4 4.525C2.25 4.375 2.175 4.19583 2.175 3.9875C2.175 3.77917 2.25 3.6 2.4 3.45L3.45 2.4C3.6 2.25 3.77917 2.175 3.9875 2.175C4.19583 2.175 4.375 2.25 4.525 2.4C4.675 2.55 4.75 2.72917 4.75 2.9375C4.75 3.14583 4.675 3.325 4.525 3.475V3.475L5.6 4.55C6.11667 4.13333 6.675 3.8 7.275 3.55C7.875 3.3 8.525 3.13333 9.225 3.05V1.5V1.5C9.025 1.5 8.85417 1.425 8.7125 1.275C8.57083 1.125 8.5 0.95 8.5 0.75C8.5 0.55 8.575 0.375 8.725 0.225C8.875 0.075 9.05 0 9.25 0H10.75C10.95 0 11.125 0.075 11.275 0.225C11.425 0.375 11.5 0.55 11.5 0.75C11.5 0.95 11.425 1.125 11.275 1.275C11.125 1.425 10.95 1.5 10.75 1.5V1.5V3.05C11.45 3.13333 12.1 3.3 12.7 3.55C13.3 3.8 13.8583 4.13333 14.375 4.55L15.475 3.45V3.45C15.325 3.3 15.25 3.125 15.25 2.925C15.25 2.725 15.325 2.55 15.475 2.4C15.625 2.25 15.8042 2.175 16.0125 2.175C16.2208 2.175 16.4 2.25 16.55 2.4L17.6 3.475C17.75 3.625 17.825 3.8 17.825 4C17.825 4.2 17.75 4.375 17.6 4.525C17.45 4.675 17.2708 4.75 17.0625 4.75C16.8542 4.75 16.675 4.675 16.525 4.525V4.525L15.45 5.6C15.8667 6.11667 16.2 6.67917 16.45 7.2875C16.7 7.89583 16.8667 8.55 16.95 9.25H18.5V9.25C18.5 9.05 18.575 8.875 18.725 8.725C18.875 8.575 19.05 8.5 19.25 8.5C19.45 8.5 19.625 8.575 19.775 8.725C19.925 8.875 20 9.05 20 9.25V10.75C20 10.95 19.925 11.125 19.775 11.275C19.625 11.425 19.45 11.5 19.25 11.5C19.05 11.5 18.875 11.425 18.725 11.275C18.575 11.125 18.5 10.95 18.5 10.75V10.75H16.95C16.8667 11.45 16.7 12.1042 16.45 12.7125C16.2 13.3208 15.8667 13.8833 15.45 14.4L16.525 15.475V15.475C16.675 15.325 16.8542 15.25 17.0625 15.25C17.2708 15.25 17.45 15.325 17.6 15.475C17.75 15.625 17.825 15.8042 17.825 16.0125C17.825 16.2208 17.75 16.4 17.6 16.55L16.55 17.6C16.4 17.75 16.2208 17.825 16.0125 17.825C15.8042 17.825 15.625 17.75 15.475 17.6C15.325 17.45 15.2542 17.275 15.2625 17.075C15.2708 16.875 15.3417 16.7 15.475 16.55V16.55L14.375 15.45C13.8583 15.8667 13.3 16.2042 12.7 16.4625C12.1 16.7208 11.45 16.8917 10.75 16.975V18.5V18.5C10.95 18.5 11.125 18.575 11.275 18.725C11.425 18.875 11.5 19.05 11.5 19.25C11.5 19.45 11.425 19.625 11.275 19.775C11.125 19.925 10.95 20 10.75 20H9.25V20M10 15C11.3833 15 12.5625 14.5125 13.5375 13.5375C14.5125 12.5625 15 11.3833 15 10C15 8.61667 14.5125 7.4375 13.5375 6.4625C12.5625 5.4875 11.3833 5 10 5C8.61667 5 7.4375 5.4875 6.4625 6.4625C5.4875 7.4375 5 8.61667 5 10C5 11.3833 5.4875 12.5625 6.4625 13.5375C7.4375 14.5125 8.61667 15 10 15V15M8.25 14C8.53333 14 8.77083 13.9042 8.9625 13.7125C9.15417 13.5208 9.25 13.2833 9.25 13C9.25 12.7167 9.15417 12.4792 8.9625 12.2875C8.77083 12.0958 8.53333 12 8.25 12C7.96667 12 7.72917 12.0958 7.5375 12.2875C7.34583 12.4792 7.25 12.7167 7.25 13C7.25 13.2833 7.34583 13.5208 7.5375 13.7125C7.72917 13.9042 7.96667 14 8.25 14V14M11.75 14C12.0333 14 12.2708 13.9042 12.4625 13.7125C12.6542 13.5208 12.75 13.2833 12.75 13C12.75 12.7167 12.6542 12.4792 12.4625 12.2875C12.2708 12.0958 12.0333 12 11.75 12C11.4667 12 11.2292 12.0958 11.0375 12.2875C10.8458 12.4792 10.75 12.7167 10.75 13C10.75 13.2833 10.8458 13.5208 11.0375 13.7125C11.2292 13.9042 11.4667 14 11.75 14V14M6.5 11C6.78333 11 7.02083 10.9042 7.2125 10.7125C7.40417 10.5208 7.5 10.2833 7.5 10C7.5 9.71667 7.40417 9.47917 7.2125 9.2875C7.02083 9.09583 6.78333 9 6.5 9C6.21667 9 5.97917 9.09583 5.7875 9.2875C5.59583 9.47917 5.5 9.71667 5.5 10C5.5 10.2833 5.59583 10.5208 5.7875 10.7125C5.97917 10.9042 6.21667 11 6.5 11V11M10 11C10.2833 11 10.5208 10.9042 10.7125 10.7125C10.9042 10.5208 11 10.2833 11 10C11 9.71667 10.9042 9.47917 10.7125 9.2875C10.5208 9.09583 10.2833 9 10 9C9.71667 9 9.47917 9.09583 9.2875 9.2875C9.09583 9.47917 9 9.71667 9 10C9 10.2833 9.09583 10.5208 9.2875 10.7125C9.47917 10.9042 9.71667 11 10 11V11M13.5 11C13.7833 11 14.0208 10.9042 14.2125 10.7125C14.4042 10.5208 14.5 10.2833 14.5 10C14.5 9.71667 14.4042 9.47917 14.2125 9.2875C14.0208 9.09583 13.7833 9 13.5 9C13.2167 9 12.9792 9.09583 12.7875 9.2875C12.5958 9.47917 12.5 9.71667 12.5 10C12.5 10.2833 12.5958 10.5208 12.7875 10.7125C12.9792 10.9042 13.2167 11 13.5 11V11M8.25 8C8.53333 8 8.77083 7.90417 8.9625 7.7125C9.15417 7.52083 9.25 7.28333 9.25 7C9.25 6.71667 9.15417 6.47917 8.9625 6.2875C8.77083 6.09583 8.53333 6 8.25 6C7.96667 6 7.72917 6.09583 7.5375 6.2875C7.34583 6.47917 7.25 6.71667 7.25 7C7.25 7.28333 7.34583 7.52083 7.5375 7.7125C7.72917 7.90417 7.96667 8 8.25 8V8M11.75 8C12.0333 8 12.2708 7.90417 12.4625 7.7125C12.6542 7.52083 12.75 7.28333 12.75 7C12.75 6.71667 12.6542 6.47917 12.4625 6.2875C12.2708 6.09583 12.0333 6 11.75 6C11.4667 6 11.2292 6.09583 11.0375 6.2875C10.8458 6.47917 10.75 6.71667 10.75 7C10.75 7.28333 10.8458 7.52083 11.0375 7.7125C11.2292 7.90417 11.4667 8 11.75 8V8M10 10V10V10V10V10V10V10V10V10V10" fill="#44403C"/>
</svg>
